<?xml version="1.0" encoding="UTF-8" standalone="no"?>
<!-- Created with Inkscape (http://www.inkscape.org/) -->

<svg
   width="1404"
   height="1872"
   viewBox="0 0 371.47502 495.3"
   version="1.1"
   id="svg1"
   xml:space="preserve"
   inkscape:version="1.4.2 (ebf0e940d0, 2025-05-08)"
   sodipodi:docname="splash_screen.svg"
   xmlns:inkscape="http://www.inkscape.org/namespaces/inkscape"
   xmlns:sodipodi="http://sodipodi.sourceforge.net/DTD/sodipodi-0.dtd"
   xmlns="http://www.w3.org/2000/svg"
   xmlns:svg="http://www.w3.org/2000/svg"
   xmlns:rdf="http://www.w3.org/1999/02/22-rdf-syntax-ns#"
   xmlns:cc="http://creativecommons.org/ns#"
   xmlns:dc="http://purl.org/dc/elements/1.1/"><sodipodi:namedview
     id="namedview1"
     pagecolor="#ffffff"
     bordercolor="#666666"
     borderopacity="1.0"
     inkscape:showpageshadow="2"
     inkscape:pageopacity="0.0"
     inkscape:pagecheckerboard="0"
     inkscape:deskcolor="#d1d1d1"
     inkscape:document-units="mm"
     inkscape:zoom="0.54386574"
     inkscape:cx="953.36029"
     inkscape:cy="892.68355"
     inkscape:window-width="2496"
     inkscape:window-height="1371"
     inkscape:window-x="0"
     inkscape:window-y="0"
     inkscape:window-maximized="1"
     inkscape:current-layer="logo"
     showguides="true"><sodipodi:guide
       position="281.67568,495.3"
       orientation="0.70710678,-0.70710678"
       id="guide2"
       inkscape:locked="false" /><sodipodi:guide
       position="199.94595,495.3"
       orientation="0,-1"
       id="guide3"
       inkscape:locked="false" /><sodipodi:guide
       position="-483.94603,529.6998"
       orientation="1,0"
       id="guide4"
       inkscape:locked="false" /></sodipodi:namedview><defs
     id="defs1"><rect
       x="398.0762"
       y="1237.4377"
       width="475.30112"
       height="62.51543"
       id="rect2" /><rect
       x="398.0762"
       y="1237.4377"
       width="475.30112"
       height="62.51543"
       id="rect6" /><rect
       x="398.0762"
       y="1237.4377"
       width="475.30112"
       height="62.51543"
       id="rect7" /><rect
       x="398.0762"
       y="1237.4377"
       width="475.30112"
       height="62.51543"
       id="rect8" /><rect
       x="398.0762"
       y="1237.4377"
       width="475.30112"
       height="62.51543"
       id="rect9" /></defs><g
     inkscape:label="logo"
     inkscape:groupmode="layer"
     id="logo"
     transform="translate(-0.97297298)"><g
       id="g21"
       transform="translate(0.97297298)"><g
         id="temp-flake"
         transform="matrix(0.24025365,0,0,0.24025365,15.136574,20.044111)"
         style="clip-rule:evenodd;fill-rule:evenodd;stroke-linecap:round;stroke-linejoin:round;stroke-miterlimit:1.5">
            <g
   id="g7">
                <path
   d="m 742.336,672.739 c -31.825,-18.374 -9.65,-103.413 57.769,-136.034 25.135,-12.161 60.685,-82.843 55.357,-95.612 -4.597,-11.019 -104.796,61.933 -114.878,55.747 -10.082,-6.186 53.134,-76.642 54.386,-92.862 3.939,-51.036 -56.306,0 -84.459,0"
   style="fill:none;stroke:#000000;stroke-width:11.25px"
   id="path6" />
            </g>
            <g
   id="g8">
                <path
   d="m 742.336,672.739 c -31.825,-18.374 -9.65,-103.413 57.769,-136.034 25.135,-12.161 60.685,-82.843 55.357,-95.612 -4.597,-11.019 -104.796,61.933 -114.878,55.747 -10.082,-6.186 53.134,-76.642 54.386,-92.862 3.939,-51.036 -56.306,0 -84.459,0"
   style="fill:none;stroke:#000000;stroke-width:11.25px"
   id="path7" />
            </g>
            <g
   transform="matrix(-1,0,0,1,1421.02,0)"
   id="g9">
                <path
   d="m 742.336,672.739 c -31.825,-18.374 -9.65,-103.413 57.769,-136.034 25.135,-12.161 60.685,-82.843 55.357,-95.612 -4.597,-11.019 -104.796,61.933 -114.878,55.747 -10.082,-6.186 53.134,-76.642 54.386,-92.862 3.939,-51.036 -56.306,0 -84.459,0"
   style="fill:none;stroke:#000000;stroke-width:11.25px"
   id="path8" />
            </g>
            <g
   transform="matrix(-0.5,0.866025,0.866025,0.5,435.419,-251.389)"
   id="g10">
                <path
   d="m 742.336,672.739 c -31.825,-18.374 -9.65,-103.413 57.769,-136.034 25.135,-12.161 60.685,-82.843 55.357,-95.612 -4.597,-11.019 -104.796,61.933 -114.878,55.747 -10.082,-6.186 53.134,-76.642 54.386,-92.862 3.939,-51.036 -56.306,0 -84.459,0"
   style="fill:none;stroke:#000000;stroke-width:11.25px"
   id="path9" />
            </g>
            <g
   transform="matrix(0.5,0.866025,0.866025,-0.5,-275.092,476.473)"
   id="g11">
                <path
   d="m 742.336,672.739 c -31.825,-18.374 -9.65,-103.413 57.769,-136.034 25.135,-12.161 60.685,-82.843 55.357,-95.612 -4.597,-11.019 -104.796,61.933 -114.878,55.747 -10.082,-6.186 53.134,-76.642 54.386,-92.862 3.939,-51.036 -56.306,0 -84.459,0"
   style="fill:none;stroke:#000000;stroke-width:11.25px"
   id="path10" />
            </g>
            <g
   transform="matrix(1,0,0,-1,0,1455.72)"
   id="g12">
                <path
   d="m 742.336,672.739 c -31.825,-18.374 -9.65,-103.413 57.769,-136.034 25.135,-12.161 60.685,-82.843 55.357,-95.612 -4.597,-11.019 -104.796,61.933 -114.878,55.747 -10.082,-6.186 53.134,-76.642 54.386,-92.862 3.939,-51.036 -56.306,0 -84.459,0"
   style="fill:none;stroke:#000000;stroke-width:11.25px"
   id="path11" />
            </g>
            <g
   transform="matrix(0.5,-0.866025,-0.866025,-0.5,985.603,1707.11)"
   id="g13">
                <path
   d="m 742.336,672.739 c -31.825,-18.374 -9.65,-103.413 57.769,-136.034 25.135,-12.161 60.685,-82.843 55.357,-95.612 -4.597,-11.019 -104.796,61.933 -114.878,55.747 -10.082,-6.186 53.134,-76.642 54.386,-92.862 3.939,-51.036 -56.306,0 -84.459,0"
   style="fill:none;stroke:#000000;stroke-width:11.25px"
   id="path12" />
            </g>
            <g
   transform="matrix(-0.5,-0.866025,-0.866025,0.5,1696.11,979.252)"
   id="g14">
                <path
   d="m 742.336,672.739 c -31.825,-18.374 -9.65,-103.413 57.769,-136.034 25.135,-12.161 60.685,-82.843 55.357,-95.612 -4.597,-11.019 -104.796,61.933 -114.878,55.747 -10.082,-6.186 53.134,-76.642 54.386,-92.862 3.939,-51.036 -56.306,0 -84.459,0"
   style="fill:none;stroke:#000000;stroke-width:11.25px"
   id="path13" />
            </g>
            <g
   transform="rotate(59.999988,710.51116,727.86285)"
   id="g15">
                <path
   d="m 742.336,672.739 c -31.825,-18.374 -9.65,-103.413 57.769,-136.034 25.135,-12.161 60.685,-82.843 55.357,-95.612 -4.597,-11.019 -104.796,61.933 -114.878,55.747 -10.082,-6.186 53.134,-76.642 54.386,-92.862 3.939,-51.036 -56.306,0 -84.459,0"
   style="fill:none;stroke:#000000;stroke-width:11.25px"
   id="path14" />
            </g>
            <g
   transform="rotate(120.00001,710.50932,727.86122)"
   id="g16">
                <path
   d="m 742.336,672.739 c -31.825,-18.374 -9.65,-103.413 57.769,-136.034 25.135,-12.161 60.685,-82.843 55.357,-95.612 -4.597,-11.019 -104.796,61.933 -114.878,55.747 -10.082,-6.186 53.134,-76.642 54.386,-92.862 3.939,-51.036 -56.306,0 -84.459,0"
   style="fill:none;stroke:#000000;stroke-width:11.25px"
   id="path15" />
            </g>
            <g
   transform="rotate(180,710.51,727.86)"
   id="g17">
                <path
   d="m 742.336,672.739 c -31.825,-18.374 -9.65,-103.413 57.769,-136.034 25.135,-12.161 60.685,-82.843 55.357,-95.612 -4.597,-11.019 -104.796,61.933 -114.878,55.747 -10.082,-6.186 53.134,-76.642 54.386,-92.862 3.939,-51.036 -56.306,0 -84.459,0"
   style="fill:none;stroke:#000000;stroke-width:11.25px"
   id="path16" />
            </g>
            <g
   transform="rotate(-120.00001,710.50964,727.86059)"
   id="g18">
                <path
   d="m 742.336,672.739 c -31.825,-18.374 -9.65,-103.413 57.769,-136.034 25.135,-12.161 60.685,-82.843 55.357,-95.612 -4.597,-11.019 -104.796,61.933 -114.878,55.747 -10.082,-6.186 53.134,-76.642 54.386,-92.862 3.939,-51.036 -56.306,0 -84.459,0"
   style="fill:none;stroke:#000000;stroke-width:11.25px"
   id="path17" />
            </g>
            <g
   transform="rotate(-59.999988,710.51121,727.86306)"
   id="g19">
                <path
   d="m 742.336,672.739 c -31.825,-18.374 -9.65,-103.413 57.769,-136.034 25.135,-12.161 60.685,-82.843 55.357,-95.612 -4.597,-11.019 -104.796,61.933 -114.878,55.747 -10.082,-6.186 53.134,-76.642 54.386,-92.862 3.939,-51.036 -56.306,0 -84.459,0"
   style="fill:none;stroke:#000000;stroke-width:11.25px"
   id="path18" />
            </g>
            <g
   transform="translate(-6.48554,-28.3849)"
   id="g20">
                <circle
   cx="716.99597"
   cy="752.91803"
   r="35.198002"
   style="fill:none;stroke:#000000;stroke-width:11.25px"
   id="circle19" />
            </g>
        </g><g
         id="outline"
         transform="matrix(0.22830091,0,0,0.22629828,28.688739,33.207349)"
         style="clip-rule:evenodd;fill-rule:evenodd;stroke-linecap:round;stroke-linejoin:round;stroke-miterlimit:1.5">
            <rect
   x="320.90399"
   y="331.776"
   width="733.99701"
   height="919.85901"
   style="fill:none"
   id="rect24" />
        </g><text
         xml:space="preserve"
         transform="matrix(1.1504193,0,0,1.1504193,-317.79914,-1132.8302)"
         id="text2"
         style="font-size:11.2px;line-height:0.9;font-family:'Stack Sans Notch';-inkscape-font-specification:'Stack Sans Notch, @wght=700';font-variation-settings:'wght' 700;text-align:start;letter-spacing:0.0528974px;word-spacing:0px;writing-mode:lr-tb;direction:ltr;white-space:pre;shape-inside:url(#rect2);clip-rule:evenodd;display:inline;fill:#000000;fill-rule:evenodd;stroke-width:0.0260775;stroke-linecap:round;stroke-linejoin:round;stroke-miterlimit:1.5;paint-order:stroke fill markers"><tspan
           x="398.07617"
           y="1245.4929"
           id="tspan2"><tspan
             style="font-family:'Stack Sans Headline';-inkscape-font-specification:'Stack Sans Headline, @wght=700';fill-rule:nonzero"
             id="tspan1">Starting Sytem</tspan></tspan></text><text
         xml:space="preserve"
         transform="matrix(0.7652898,0,0,0.7652898,-190.57785,-639.42558)"
         id="text5"
         style="font-size:11.2px;line-height:0.9;font-family:'Stack Sans Notch';-inkscape-font-specification:'Stack Sans Notch, @wght=700';font-variation-settings:'wght' 700;text-align:start;letter-spacing:0.0528974px;word-spacing:0px;writing-mode:lr-tb;direction:ltr;white-space:pre;shape-inside:url(#rect6);clip-rule:evenodd;display:inline;fill:#000000;fill-rule:evenodd;stroke-width:0.0392009;stroke-linecap:round;stroke-linejoin:round;stroke-miterlimit:1.5;paint-order:stroke fill markers"><tspan
           x="398.07617"
           y="1245.4929"
           id="tspan4"><tspan
             style="font-family:'DM Sans';-inkscape-font-specification:'DM Sans, @wght=700';fill-rule:nonzero"
             id="tspan3">Initialising display and fetching data</tspan></tspan></text></g><rect
       style="font-variation-settings:'wght' 700;fill:none;fill-rule:nonzero;stroke-width:0.03;paint-order:stroke fill markers"
       id="rect22"
       width="168.27499"
       height="208.492"
       x="102.61597"
       y="108.414" /></g><g
     inkscape:groupmode="layer"
     id="footer"
     inkscape:label="footer"
     transform="translate(-0.97297298)"><g
       id="g22"
       transform="translate(0.97297298)"><g
         id="open_hardware_logo.svg"
         transform="matrix(0.03585329,0,0,0.03585329,225.97394,444.25597)"
         style="clip-rule:evenodd;fill-rule:evenodd;stroke-linecap:round;stroke-linejoin:round;stroke-miterlimit:1.5">
            <g
   transform="translate(-400,-400)"
   id="g4">
                <path
   d="m 158.158,678.441 c -17.456,-17.354 -31.738,-32.868 -31.738,-34.486 0,-1.6 10.669,-18.44 23.709,-37.394 13.04,-18.954 23.692,-35.72 23.671,-37.257 -0.021,-1.543 -5.992,-17.566 -13.269,-35.623 -10.589,-26.268 -14.132,-33.246 -17.744,-34.937 -2.48,-1.143 -21.747,-5.2 -42.812,-8.92 -21.065,-3.771 -39.326,-7.617 -40.579,-8.6 -1.715,-1.314 -2.275,-12.737 -2.252,-45.794 0.016,-24.2 0.629,-44.932 1.366,-46.069 0.737,-1.143 19.806,-5.486 42.375,-9.68 22.569,-4.171 42.727,-8.297 44.795,-9.137 2.675,-1.086 7.548,-10.469 16.871,-32.486 7.21,-17.028 13.109,-32.56 13.109,-34.514 0,-1.943 -10.78,-19.097 -23.954,-38.086 -13.175,-18.988 -24.371,-36.04 -24.881,-37.891 -0.691,-2.514 7.153,-11.463 30.775,-35.109 17.435,-17.457 32.575,-31.743 33.645,-31.743 1.068,0 18.314,11.195 38.319,24.869 20.005,13.674 37.768,25.251 39.474,25.72 3.24,0.914 60.955,-22 64.719,-25.674 1.737,-1.715 10.38,-43.292 17.775,-85.537 0.874,-4.972 2.28,-7.092 5.217,-7.812 2.211,-0.571 23.31,-0.743 46.883,-0.571 l 42.859,0.571 2.154,8.726 c 1.183,4.8 5.143,25.314 8.8,45.594 3.658,20.28 7.612,37.817 8.79,38.977 2.514,2.457 60.32,26.16 63.838,26.16 1.314,0 15.056,-8.685 30.534,-19.297 15.476,-10.617 32.25,-22.103 37.274,-25.531 5.023,-3.429 9.957,-6.235 10.962,-6.235 1.006,0 16.093,14.28 33.528,31.738 23.454,23.485 31.468,32.617 30.809,35.108 -0.514,1.829 -11.685,19.074 -24.88,38.269 -13.195,19.188 -23.99,36.194 -23.99,37.777 0,3.143 25.027,63.114 27.414,65.691 0.806,0.857 20.616,5.2 44.02,9.56 23.404,4.4 43.579,8.372 44.832,8.846 1.737,0.686 2.28,11.629 2.28,46.297 0,34.172 -0.571,45.869 -2.28,47.217 -1.251,0.972 -19.515,4.857 -40.579,8.6 -21.065,3.715 -40.278,7.76 -42.696,8.92 -3.44,1.657 -7.284,9.24 -17.692,34.937 -7.313,18.058 -13.337,33.903 -13.386,35.218 -0.049,1.314 10.58,18.011 23.62,37.102 13.04,19.086 23.709,36.098 23.709,37.8 0,1.715 -14.282,17.292 -31.739,34.646 -29.622,29.446 -32.01,31.406 -35.82,29.366 -2.246,-1.2 -18.245,-11.943 -35.554,-23.869 -17.309,-11.925 -32.694,-21.685 -34.188,-21.685 -1.498,0 -9.771,3.771 -18.39,8.337 -8.62,4.571 -16.416,7.88 -17.325,7.314 -0.908,-0.571 -5.945,-11.491 -11.191,-24.291 -5.246,-12.8 -18.881,-45.755 -30.3,-73.229 -11.418,-27.474 -20.761,-51 -20.761,-52.274 0,-1.257 5.143,-5.989 11.428,-10.475 22.127,-15.788 32.629,-29.022 40.648,-51.222 8.842,-24.475 7.32,-48.509 -4.645,-73.309 -15.569,-32.269 -49.742,-53.657 -85.731,-53.657 -40.795,0 -79.225,28.263 -91.216,67.08 -4.932,15.966 -4.932,41.366 0,57.331 6.461,20.92 22.108,40.663 44.253,55.846 4.766,3.257 8.663,7.017 8.663,8.326 0,1.314 -4.851,14.2 -10.784,28.64 -36.253,88.24 -49.165,118.845 -50.857,120.537 -1.332,1.314 -6.721,-0.629 -17.758,-6.52 -8.717,-4.629 -17.054,-8.434 -18.529,-8.434 -1.474,0 -16.769,9.72 -33.989,21.6 -17.221,11.88 -33.238,22.617 -35.592,23.868 -4.068,2.172 -5.868,0.686 -36.02,-29.28 z"
   style="fill-rule:nonzero"
   id="path3" />
            </g>
        </g><g
         transform="matrix(0.2485157,0,0,0.25971067,19.270957,2.4490486)"
         id="g5"
         style="clip-rule:evenodd;fill-rule:evenodd;stroke-linecap:round;stroke-linejoin:round;stroke-miterlimit:1.5">
            <path
   d="M 930.027,1639.19 H 414.652 v 134.12 h 515.375 z m -4.415,4.23 v 125.67 c 0,0 -506.546,0 -506.546,0 0,0 0,-125.67 0,-125.67 49.926,0 506.546,0 506.546,0 z"
   id="path4" />
        </g><text
         xml:space="preserve"
         transform="matrix(0.96752976,0,0,0.96752976,-255.76215,-761.19839)"
         id="text7"
         style="font-size:11.2px;line-height:0.9;font-family:'Stack Sans Notch';-inkscape-font-specification:'Stack Sans Notch, @wght=700';font-variation-settings:'wght' 700;text-align:start;letter-spacing:0.0528974px;word-spacing:0px;writing-mode:lr-tb;direction:ltr;white-space:pre;shape-inside:url(#rect8);clip-rule:evenodd;display:inline;fill:#000000;fill-rule:evenodd;stroke-width:0.0310069;stroke-linecap:round;stroke-linejoin:round;stroke-miterlimit:1.5;paint-order:stroke fill markers"><tspan
           x="398.07617"
           y="1245.4929"
           id="tspan6"><tspan
             style="font-family:'Stack Sans Headline';-inkscape-font-specification:'Stack Sans Headline, @wght=700';fill-rule:nonzero"
             id="tspan5">Open Hardware</tspan></tspan></text><text
         xml:space="preserve"
         transform="matrix(0.91880338,0,0,0.91880338,-235.22478,-689.75748)"
         id="text8"
         style="font-size:11.2px;line-height:0.9;font-family:'Stack Sans Notch';-inkscape-font-specification:'Stack Sans Notch, @wght=700';font-variation-settings:'wght' 700;text-align:start;letter-spacing:0.0528974px;word-spacing:0px;writing-mode:lr-tb;direction:ltr;white-space:pre;shape-inside:url(#rect9);clip-rule:evenodd;display:inline;fill:#000000;fill-rule:evenodd;stroke-width:0.0326512;stroke-linecap:round;stroke-linejoin:round;stroke-miterlimit:1.5;paint-order:stroke fill markers"><tspan
           x="398.07617"
           y="1245.4929"
           id="tspan9"><tspan
             style="font-family:'DM Sans';-inkscape-font-specification:'DM Sans, @wght=700';fill-rule:nonzero"
             id="tspan7">Source Available</tspan></tspan></text></g></g><metadata
     id="metadata2"><rdf:RDF><cc:Work
         rdf:about=""><dc:creator><cc:Agent><dc:title>Nemo Andrea</dc:title></cc:Agent></dc:creator></cc:Work></rdf:RDF></metadata></svg>
