<?xml version="1.0" encoding="UTF-8" standalone="no"?>
<!-- Created with Inkscape (http://www.inkscape.org/) -->

<svg
   width="1404"
   height="1872"
   viewBox="0 0 371.47502 495.3"
   version="1.1"
   id="svg1"
   xml:space="preserve"
   inkscape:version="1.3 (0e150ed6c4, 2023-07-21)"
   sodipodi:docname="splash_screen.svg"
   xmlns:inkscape="http://www.inkscape.org/namespaces/inkscape"
   xmlns:sodipodi="http://sodipodi.sourceforge.net/DTD/sodipodi-0.dtd"
   xmlns="http://www.w3.org/2000/svg"
   xmlns:svg="http://www.w3.org/2000/svg"
   xmlns:rdf="http://www.w3.org/1999/02/22-rdf-syntax-ns#"
   xmlns:cc="http://creativecommons.org/ns#"
   xmlns:dc="http://purl.org/dc/elements/1.1/"
   xmlns:serif="http://www.serif.com/"><sodipodi:namedview
     id="namedview1"
     pagecolor="#ffffff"
     bordercolor="#666666"
     borderopacity="1.0"
     inkscape:showpageshadow="2"
     inkscape:pageopacity="0.0"
     inkscape:pagecheckerboard="0"
     inkscape:deskcolor="#d1d1d1"
     inkscape:document-units="mm"
     inkscape:zoom="0.27193287"
     inkscape:cx="685.83103"
     inkscape:cy="965.31177"
     inkscape:window-width="2482"
     inkscape:window-height="1417"
     inkscape:window-x="2552"
     inkscape:window-y="-8"
     inkscape:window-maximized="1"
     inkscape:current-layer="g2"
     showguides="true"><sodipodi:guide
       position="282.64866,495.3"
       orientation="0.70710678,-0.70710678"
       id="guide2"
       inkscape:locked="false" /><sodipodi:guide
       position="200.91893,495.3"
       orientation="0,-1"
       id="guide3"
       inkscape:locked="false" /><sodipodi:guide
       position="-482.97305,529.6998"
       orientation="1,0"
       id="guide4"
       inkscape:locked="false" /></sodipodi:namedview><defs
     id="defs1" /><g
     inkscape:label="Layer 1"
     inkscape:groupmode="layer"
     id="layer1"><g
       style="clip-rule:evenodd;fill-rule:evenodd;stroke-linecap:round;stroke-linejoin:round;stroke-miterlimit:1.5"
       id="g2"
       transform="matrix(0.27425871,0,0,0.27425871,-6.8544903,-31.22436)"><g
         id="export:-footer"
         serif:id="export: footer"
         transform="translate(0.98920282,21.022718)">&#10;        <g
   transform="translate(303.668,232.791)"
   id="g1">&#10;            <text
   x="191.892"
   y="1478.12"
   style="font-weight:700;font-size:37.833px;font-family:IBMPlexSans-Bold, 'IBM Plex Sans', sans-serif"
   id="text1">Open Har<tspan
   x="358.69901 381.702 412.98999 434.517 449.61301"
   y="1478.12 1478.12 1478.12 1478.12 1478.12"
   id="tspan1">dware</tspan></text>&#10;        </g>&#10;        <g
   transform="translate(303.668,274.604)"
   id="g3">&#10;            <text
   x="191.892"
   y="1478.12"
   style="font-size:37.833px;font-family:IBMPlexSans-Regular, 'IBM Plex Sans', sans-serif"
   id="text3">Sour<tspan
   x="270.245 289.048"
   y="1478.12 1478.12"
   id="tspan2">ce</tspan> A<tspan
   x="342.242 360.51501"
   y="1478.12 1478.12"
   id="tspan3">va</tspan>ilable</text>&#10;        </g>&#10;        <g
   id="open_hardware_logo.svg"
   transform="matrix(0.130728,0,0,0.130728,847.948,1712.67)">&#10;            <g
   transform="translate(-400,-400)"
   id="g4">&#10;                <path
   d="m 158.158,678.441 c -17.456,-17.354 -31.738,-32.868 -31.738,-34.486 0,-1.6 10.669,-18.44 23.709,-37.394 13.04,-18.954 23.692,-35.72 23.671,-37.257 -0.021,-1.543 -5.992,-17.566 -13.269,-35.623 -10.589,-26.268 -14.132,-33.246 -17.744,-34.937 -2.48,-1.143 -21.747,-5.2 -42.812,-8.92 -21.065,-3.771 -39.326,-7.617 -40.579,-8.6 -1.715,-1.314 -2.275,-12.737 -2.252,-45.794 0.016,-24.2 0.629,-44.932 1.366,-46.069 0.737,-1.143 19.806,-5.486 42.375,-9.68 22.569,-4.171 42.727,-8.297 44.795,-9.137 2.675,-1.086 7.548,-10.469 16.871,-32.486 7.21,-17.028 13.109,-32.56 13.109,-34.514 0,-1.943 -10.78,-19.097 -23.954,-38.086 -13.175,-18.988 -24.371,-36.04 -24.881,-37.891 -0.691,-2.514 7.153,-11.463 30.775,-35.109 17.435,-17.457 32.575,-31.743 33.645,-31.743 1.068,0 18.314,11.195 38.319,24.869 20.005,13.674 37.768,25.251 39.474,25.72 3.24,0.914 60.955,-22 64.719,-25.674 1.737,-1.715 10.38,-43.292 17.775,-85.537 0.874,-4.972 2.28,-7.092 5.217,-7.812 2.211,-0.571 23.31,-0.743 46.883,-0.571 l 42.859,0.571 2.154,8.726 c 1.183,4.8 5.143,25.314 8.8,45.594 3.658,20.28 7.612,37.817 8.79,38.977 2.514,2.457 60.32,26.16 63.838,26.16 1.314,0 15.056,-8.685 30.534,-19.297 15.476,-10.617 32.25,-22.103 37.274,-25.531 5.023,-3.429 9.957,-6.235 10.962,-6.235 1.006,0 16.093,14.28 33.528,31.738 23.454,23.485 31.468,32.617 30.809,35.108 -0.514,1.829 -11.685,19.074 -24.88,38.269 -13.195,19.188 -23.99,36.194 -23.99,37.777 0,3.143 25.027,63.114 27.414,65.691 0.806,0.857 20.616,5.2 44.02,9.56 23.404,4.4 43.579,8.372 44.832,8.846 1.737,0.686 2.28,11.629 2.28,46.297 0,34.172 -0.571,45.869 -2.28,47.217 -1.251,0.972 -19.515,4.857 -40.579,8.6 -21.065,3.715 -40.278,7.76 -42.696,8.92 -3.44,1.657 -7.284,9.24 -17.692,34.937 -7.313,18.058 -13.337,33.903 -13.386,35.218 -0.049,1.314 10.58,18.011 23.62,37.102 13.04,19.086 23.709,36.098 23.709,37.8 0,1.715 -14.282,17.292 -31.739,34.646 -29.622,29.446 -32.01,31.406 -35.82,29.366 -2.246,-1.2 -18.245,-11.943 -35.554,-23.869 -17.309,-11.925 -32.694,-21.685 -34.188,-21.685 -1.498,0 -9.771,3.771 -18.39,8.337 -8.62,4.571 -16.416,7.88 -17.325,7.314 -0.908,-0.571 -5.945,-11.491 -11.191,-24.291 -5.246,-12.8 -18.881,-45.755 -30.3,-73.229 -11.418,-27.474 -20.761,-51 -20.761,-52.274 0,-1.257 5.143,-5.989 11.428,-10.475 22.127,-15.788 32.629,-29.022 40.648,-51.222 8.842,-24.475 7.32,-48.509 -4.645,-73.309 -15.569,-32.269 -49.742,-53.657 -85.731,-53.657 -40.795,0 -79.225,28.263 -91.216,67.08 -4.932,15.966 -4.932,41.366 0,57.331 6.461,20.92 22.108,40.663 44.253,55.846 4.766,3.257 8.663,7.017 8.663,8.326 0,1.314 -4.851,14.2 -10.784,28.64 -36.253,88.24 -49.165,118.845 -50.857,120.537 -1.332,1.314 -6.721,-0.629 -17.758,-6.52 -8.717,-4.629 -17.054,-8.434 -18.529,-8.434 -1.474,0 -16.769,9.72 -33.989,21.6 -17.221,11.88 -33.238,22.617 -35.592,23.868 -4.068,2.172 -5.868,0.686 -36.02,-29.28 z"
   style="fill-rule:nonzero"
   id="path3" />&#10;            </g>&#10;        </g>&#10;        <g
   transform="matrix(0.906136,0,0,0.946955,94.2692,101.757)"
   id="g5">&#10;            <path
   d="M 930.027,1639.19 H 414.652 v 134.12 h 515.375 z m -4.415,4.23 v 125.67 c 0,0 -506.546,0 -506.546,0 0,0 0,-125.67 0,-125.67 49.926,0 506.546,0 506.546,0 z"
   id="path4" />&#10;        </g>&#10;        <g
   transform="matrix(1.11693,0,0,1,-164.164,0)"
   id="g6">&#10;            <rect
   x="147.38"
   y="1161.26"
   width="1256.62"
   height="300.362"
   style="fill:none"
   id="rect5" />&#10;        </g>&#10;    </g><g
         id="export-logo"
         transform="translate(0.72744733,96.687398)">&#10;        <g
   id="temp-flake"
   transform="matrix(0.876011,0,0,0.876011,79.4562,90.2473)">&#10;            <g
   id="g7">&#10;                <path
   d="m 742.336,672.739 c -31.825,-18.374 -9.65,-103.413 57.769,-136.034 25.135,-12.161 60.685,-82.843 55.357,-95.612 -4.597,-11.019 -104.796,61.933 -114.878,55.747 -10.082,-6.186 53.134,-76.642 54.386,-92.862 3.939,-51.036 -56.306,0 -84.459,0"
   style="fill:none;stroke:#000000;stroke-width:11.25px"
   id="path6" />&#10;            </g>&#10;            <g
   id="g8">&#10;                <path
   d="m 742.336,672.739 c -31.825,-18.374 -9.65,-103.413 57.769,-136.034 25.135,-12.161 60.685,-82.843 55.357,-95.612 -4.597,-11.019 -104.796,61.933 -114.878,55.747 -10.082,-6.186 53.134,-76.642 54.386,-92.862 3.939,-51.036 -56.306,0 -84.459,0"
   style="fill:none;stroke:#000000;stroke-width:11.25px"
   id="path7" />&#10;            </g>&#10;            <g
   transform="matrix(-1,0,0,1,1421.02,0)"
   id="g9">&#10;                <path
   d="m 742.336,672.739 c -31.825,-18.374 -9.65,-103.413 57.769,-136.034 25.135,-12.161 60.685,-82.843 55.357,-95.612 -4.597,-11.019 -104.796,61.933 -114.878,55.747 -10.082,-6.186 53.134,-76.642 54.386,-92.862 3.939,-51.036 -56.306,0 -84.459,0"
   style="fill:none;stroke:#000000;stroke-width:11.25px"
   id="path8" />&#10;            </g>&#10;            <g
   transform="matrix(-0.5,0.866025,0.866025,0.5,435.419,-251.389)"
   id="g10">&#10;                <path
   d="m 742.336,672.739 c -31.825,-18.374 -9.65,-103.413 57.769,-136.034 25.135,-12.161 60.685,-82.843 55.357,-95.612 -4.597,-11.019 -104.796,61.933 -114.878,55.747 -10.082,-6.186 53.134,-76.642 54.386,-92.862 3.939,-51.036 -56.306,0 -84.459,0"
   style="fill:none;stroke:#000000;stroke-width:11.25px"
   id="path9" />&#10;            </g>&#10;            <g
   transform="matrix(0.5,0.866025,0.866025,-0.5,-275.092,476.473)"
   id="g11">&#10;                <path
   d="m 742.336,672.739 c -31.825,-18.374 -9.65,-103.413 57.769,-136.034 25.135,-12.161 60.685,-82.843 55.357,-95.612 -4.597,-11.019 -104.796,61.933 -114.878,55.747 -10.082,-6.186 53.134,-76.642 54.386,-92.862 3.939,-51.036 -56.306,0 -84.459,0"
   style="fill:none;stroke:#000000;stroke-width:11.25px"
   id="path10" />&#10;            </g>&#10;            <g
   transform="matrix(1,0,0,-1,0,1455.72)"
   id="g12">&#10;                <path
   d="m 742.336,672.739 c -31.825,-18.374 -9.65,-103.413 57.769,-136.034 25.135,-12.161 60.685,-82.843 55.357,-95.612 -4.597,-11.019 -104.796,61.933 -114.878,55.747 -10.082,-6.186 53.134,-76.642 54.386,-92.862 3.939,-51.036 -56.306,0 -84.459,0"
   style="fill:none;stroke:#000000;stroke-width:11.25px"
   id="path11" />&#10;            </g>&#10;            <g
   transform="matrix(0.5,-0.866025,-0.866025,-0.5,985.603,1707.11)"
   id="g13">&#10;                <path
   d="m 742.336,672.739 c -31.825,-18.374 -9.65,-103.413 57.769,-136.034 25.135,-12.161 60.685,-82.843 55.357,-95.612 -4.597,-11.019 -104.796,61.933 -114.878,55.747 -10.082,-6.186 53.134,-76.642 54.386,-92.862 3.939,-51.036 -56.306,0 -84.459,0"
   style="fill:none;stroke:#000000;stroke-width:11.25px"
   id="path12" />&#10;            </g>&#10;            <g
   transform="matrix(-0.5,-0.866025,-0.866025,0.5,1696.11,979.252)"
   id="g14">&#10;                <path
   d="m 742.336,672.739 c -31.825,-18.374 -9.65,-103.413 57.769,-136.034 25.135,-12.161 60.685,-82.843 55.357,-95.612 -4.597,-11.019 -104.796,61.933 -114.878,55.747 -10.082,-6.186 53.134,-76.642 54.386,-92.862 3.939,-51.036 -56.306,0 -84.459,0"
   style="fill:none;stroke:#000000;stroke-width:11.25px"
   id="path13" />&#10;            </g>&#10;            <g
   transform="rotate(59.999988,710.51116,727.86285)"
   id="g15">&#10;                <path
   d="m 742.336,672.739 c -31.825,-18.374 -9.65,-103.413 57.769,-136.034 25.135,-12.161 60.685,-82.843 55.357,-95.612 -4.597,-11.019 -104.796,61.933 -114.878,55.747 -10.082,-6.186 53.134,-76.642 54.386,-92.862 3.939,-51.036 -56.306,0 -84.459,0"
   style="fill:none;stroke:#000000;stroke-width:11.25px"
   id="path14" />&#10;            </g>&#10;            <g
   transform="rotate(120.00001,710.50932,727.86122)"
   id="g16">&#10;                <path
   d="m 742.336,672.739 c -31.825,-18.374 -9.65,-103.413 57.769,-136.034 25.135,-12.161 60.685,-82.843 55.357,-95.612 -4.597,-11.019 -104.796,61.933 -114.878,55.747 -10.082,-6.186 53.134,-76.642 54.386,-92.862 3.939,-51.036 -56.306,0 -84.459,0"
   style="fill:none;stroke:#000000;stroke-width:11.25px"
   id="path15" />&#10;            </g>&#10;            <g
   transform="rotate(180,710.51,727.86)"
   id="g17">&#10;                <path
   d="m 742.336,672.739 c -31.825,-18.374 -9.65,-103.413 57.769,-136.034 25.135,-12.161 60.685,-82.843 55.357,-95.612 -4.597,-11.019 -104.796,61.933 -114.878,55.747 -10.082,-6.186 53.134,-76.642 54.386,-92.862 3.939,-51.036 -56.306,0 -84.459,0"
   style="fill:none;stroke:#000000;stroke-width:11.25px"
   id="path16" />&#10;            </g>&#10;            <g
   transform="rotate(-120.00001,710.50964,727.86059)"
   id="g18">&#10;                <path
   d="m 742.336,672.739 c -31.825,-18.374 -9.65,-103.413 57.769,-136.034 25.135,-12.161 60.685,-82.843 55.357,-95.612 -4.597,-11.019 -104.796,61.933 -114.878,55.747 -10.082,-6.186 53.134,-76.642 54.386,-92.862 3.939,-51.036 -56.306,0 -84.459,0"
   style="fill:none;stroke:#000000;stroke-width:11.25px"
   id="path17" />&#10;            </g>&#10;            <g
   transform="rotate(-59.999988,710.51121,727.86306)"
   id="g19">&#10;                <path
   d="m 742.336,672.739 c -31.825,-18.374 -9.65,-103.413 57.769,-136.034 25.135,-12.161 60.685,-82.843 55.357,-95.612 -4.597,-11.019 -104.796,61.933 -114.878,55.747 -10.082,-6.186 53.134,-76.642 54.386,-92.862 3.939,-51.036 -56.306,0 -84.459,0"
   style="fill:none;stroke:#000000;stroke-width:11.25px"
   id="path18" />&#10;            </g>&#10;            <g
   transform="translate(-6.48554,-28.3849)"
   id="g20">&#10;                <circle
   cx="716.99597"
   cy="752.91803"
   r="35.198002"
   style="fill:none;stroke:#000000;stroke-width:11.25px"
   id="circle19" />&#10;            </g>&#10;        </g>&#10;        <g
   transform="translate(2.00883,-9.10502)"
   id="g22">&#10;            <text
   x="534.20502"
   y="1120.66"
   style="font-weight:700;font-size:44.139px;font-family:IBMPlexSans-Bold, 'IBM Plex Sans', sans-serif"
   id="text22">S<tspan
   x="561.52698"
   y="1120.66"
   id="tspan20">t</tspan>ar<tspan
   x="621.55603"
   y="1120.66"
   id="tspan21">t</tspan>ing Sy<tspan
   x="762.88898 784.78198 801.51099"
   y="1120.66 1120.66 1120.66"
   id="tspan22">ste</tspan>m</text>&#10;        </g>&#10;        <g
   transform="translate(2.00883,47.9639)"
   id="g24">&#10;            <text
   x="445.19901"
   y="1111.33"
   style="font-size:31.528px;font-family:IBMPlexSans-Regular, 'IBM Plex Sans', sans-serif"
   id="text24">Initialising displa<tspan
   x="686.13501"
   y="1111.33"
   id="tspan23">y</tspan> and f<tspan
   x="779.867 797.17603 808.11603"
   y="1111.33 1111.33 1111.33"
   id="tspan24">etc</tspan>hing data</text>&#10;        </g>&#10;        <g
   id="outline"
   transform="matrix(0.832429,0,0,0.825127,128.87,138.243)">&#10;            <rect
   x="320.90399"
   y="331.776"
   width="733.99701"
   height="919.85901"
   style="fill:none"
   id="rect24" />&#10;        </g>&#10;    </g></g></g><metadata
     id="metadata2"><rdf:RDF><cc:Work
         rdf:about=""><dc:creator><cc:Agent><dc:title>Nemo Andrea</dc:title></cc:Agent></dc:creator></cc:Work></rdf:RDF></metadata></svg>
